<?xml version="1.0" encoding="utf-8"?>
<!-- Generator: Adobe Illustrator 25.4.1, SVG Export Plug-In . SVG Version: 6.00 Build 0)  -->
<svg version="1.1" id="Layer_1" xmlns="http://www.w3.org/2000/svg" xmlns:xlink="http://www.w3.org/1999/xlink" x="0px" y="0px"
	 viewBox="0 0 853 127.2" style="enable-background:new 0 0 853 127.2;" xml:space="preserve">
<style type="text/css">
	.st0{fill:#F68E38;}
	.st1{fill:#444445;}
</style>
<g>
	<polygon class="st0" points="137.7,39.7 102.3,39.7 102.2,22 191,22 191,39.7 155.5,39.7 155.5,110.8 137.7,110.8 	"/>
	<g>
		<rect x="379.5" y="22" class="st0" width="88.8" height="17.8"/>
		<polygon class="st0" points="379.5,57.5 379.5,57.5 379.5,110.8 397.3,110.8 397.3,93 397.3,75.2 468.3,75.2 468.3,57.5 
			397.3,57.5 		"/>
	</g>
	<rect x="281.8" y="22" class="st0" width="88.8" height="17.8"/>
	<polygon class="st0" points="281.8,57.5 281.8,57.5 281.8,110.8 299.6,110.8 299.6,93 299.6,75.2 370.6,75.2 370.6,57.5 
		299.6,57.5 	"/>
	<polygon class="st0" points="795.7,39.1 760.2,39.1 760.2,21.3 849,21.3 849,39.1 813.5,39.1 813.5,110.2 795.7,110.2 	"/>
	<path class="st0" d="M593.2,92.4V21.3h-17.8v88.8h54.3c3-4.2,6.2-12.1,7.3-17.7L593.2,92.4z"/>
	<path class="st0" d="M746.3,98.5v16.4h-90.3v-3.5h-6.3v9.8h102.9V30.9C752.5,46,751.5,78.9,746.3,98.5"/>
	<path class="st1" d="M752.6,20L752.6,20l-102.9,0l0,3.2c0.1,35.5-2.8,57.1-5.6,69.4c-0.3,1.1-1.7,8.3-5.2,15.9
		c-0.8,1.6-1.7,3-1.7,3h12.5h6.3h84.7l0.9-1.4c1.8-2.7,3.3-6.7,4.6-11.5c5.2-19.6,6.2-52.5,6.3-67.6V20.9L752.6,20z M737.3,105
		h-81.2h-6.3h-2.4c0.7-2,1.6-4.8,2.4-8.4c2.8-11.5,6-31.8,6.3-65.6c0-1.6,0-3.2,0-4.8h90.2C746.3,46.4,744.7,90.9,737.3,105"/>
	<path class="st0" d="M715.5,58.8c0,0.6-0.5,1.1-1.1,1.1h-10.6c-0.6,0-1.1-0.5-1.1-1.1V48.2c0-0.6,0.5-1.1,1.1-1.1h10.6
		c0.6,0,1.1,0.5,1.1,1.1V58.8z"/>
	<path class="st0" d="M695.8,75.6c0,0.6-0.5,1.1-1.1,1.1h-10.6c-0.6,0-1.1-0.5-1.1-1.1V65c0-0.6,0.5-1.1,1.1-1.1h10.6
		c0.6,0,1.1,0.5,1.1,1.1V75.6z"/>
	<path class="st0" d="M676.1,92.4c0,0.6-0.5,1.1-1.1,1.1h-10.6c-0.6,0-1.1-0.5-1.1-1.1V81.8c0-0.6,0.5-1.1,1.1-1.1H675
		c0.6,0,1.1,0.5,1.1,1.1V92.4z"/>
	<path class="st1" d="M695.8,58.8c0,0.6-0.5,1.1-1.1,1.1h-10.6c-0.6,0-1.1-0.5-1.1-1.1V48.2c0-0.6,0.5-1.1,1.1-1.1h10.6
		c0.6,0,1.1,0.5,1.1,1.1V58.8z"/>
	<path class="st1" d="M735.2,58.8c0,0.6-0.5,1.1-1.1,1.1h-10.6c-0.6,0-1.1-0.5-1.1-1.1V48.2c0-0.6,0.5-1.1,1.1-1.1h10.6
		c0.6,0,1.1,0.5,1.1,1.1V58.8z"/>
	<path class="st1" d="M676.1,75.6c0,0.6-0.5,1.1-1.1,1.1h-10.6c-0.6,0-1.1-0.5-1.1-1.1V65c0-0.6,0.5-1.1,1.1-1.1H675
		c0.6,0,1.1,0.5,1.1,1.1V75.6z"/>
	<path class="st1" d="M715.5,75.6c0,0.6-0.5,1.1-1.1,1.1h-10.6c-0.6,0-1.1-0.5-1.1-1.1V65c0-0.6,0.5-1.1,1.1-1.1h10.6
		c0.6,0,1.1,0.5,1.1,1.1V75.6z"/>
	<path class="st1" d="M735.2,75.6c0,0.6-0.5,1.1-1.1,1.1h-10.6c-0.6,0-1.1-0.5-1.1-1.1V65c0-0.6,0.5-1.1,1.1-1.1h10.6
		c0.6,0,1.1,0.5,1.1,1.1V75.6z"/>
	<path class="st1" d="M695.8,92.4c0,0.6-0.5,1.1-1.1,1.1h-10.6c-0.6,0-1.1-0.5-1.1-1.1V81.8c0-0.6,0.5-1.1,1.1-1.1h10.6
		c0.6,0,1.1,0.5,1.1,1.1V92.4z"/>
	<path class="st1" d="M715.5,92.4c0,0.6-0.5,1.1-1.1,1.1h-10.6c-0.6,0-1.1-0.5-1.1-1.1V81.8c0-0.6,0.5-1.1,1.1-1.1h10.6
		c0.6,0,1.1,0.5,1.1,1.1V92.4z"/>
	<path class="st1" d="M735.2,92.4c0,0.6-0.5,1.1-1.1,1.1h-10.6c-0.6,0-1.1-0.5-1.1-1.1V81.8c0-0.6,0.5-1.1,1.1-1.1h10.6
		c0.6,0,1.1,0.5,1.1,1.1V92.4z"/>
	<path class="st1" d="M684.4,10.6c-1.9,0-3.6,0.6-5.1,1.7c-1.5-1.1-3.3-1.7-5.1-1.7c-5.7,0-10.3,5.8-10.3,13c0,3.1,0.9,6,2.4,8.3
		c-0.2,0.6-0.4,1.2-0.4,1.9c0,2.6,2.1,4.7,4.7,4.7c2.6,0,4.7-2.1,4.7-4.7c0-2.6-2.1-4.7-4.7-4.7c-0.4,0-0.8,0.1-1.1,0.2
		c-0.9-1.5-1.4-3.5-1.4-5.6c0-4.8,2.8-8.9,6.2-8.9c0.8,0,1.6,0.3,2.3,0.7c-1.4,2.2-2.3,5.1-2.3,8.2c0,3.1,0.9,6,2.4,8.3
		c-0.2,0.6-0.4,1.2-0.4,1.9c0,2.6,2.1,4.7,4.7,4.7s4.7-2.1,4.7-4.7c0-2.6-2.1-4.7-4.7-4.7c-0.4,0-0.8,0.1-1.1,0.2
		c-0.9-1.5-1.4-3.5-1.4-5.6c0-1.8,0.4-3.5,1.1-4.9c0.2,0.4,0.3,0.8,0.5,1.2h4.2c-0.4-1.7-1-3.2-1.9-4.5c0.7-0.4,1.5-0.7,2.3-0.7
		c2.4,0,4.6,2.2,5.6,5.2h4.2C693,14.6,689,10.6,684.4,10.6"/>
	<path class="st1" d="M729.5,10.6c-1.9,0-3.6,0.6-5.1,1.7c-1.5-1.1-3.3-1.7-5.1-1.7c-5.7,0-10.3,5.8-10.3,13c0,3.1,0.9,6,2.4,8.3
		c-0.2,0.6-0.4,1.2-0.4,1.9c0,2.6,2.1,4.7,4.7,4.7c2.6,0,4.7-2.1,4.7-4.7c0-2.6-2.1-4.7-4.7-4.7c-0.4,0-0.8,0.1-1.1,0.2
		c-0.9-1.5-1.4-3.5-1.4-5.6c0-4.8,2.8-8.9,6.2-8.9c0.8,0,1.6,0.3,2.3,0.7c-1.4,2.2-2.3,5.1-2.3,8.2c0,3.1,0.9,6,2.4,8.3
		c-0.2,0.6-0.4,1.2-0.4,1.9c0,2.6,2.1,4.7,4.7,4.7c2.6,0,4.7-2.1,4.7-4.7c0-2.6-2.1-4.7-4.7-4.7c-0.4,0-0.8,0.1-1.1,0.2
		c-0.9-1.5-1.4-3.5-1.4-5.6c0-1.8,0.4-3.5,1.1-4.9c0.2,0.4,0.3,0.8,0.5,1.2h4.2c-0.4-1.7-1-3.2-1.9-4.5c0.7-0.4,1.5-0.7,2.3-0.7
		c2.4,0,4.6,2.2,5.6,5.2h4.2C738.1,14.6,734.2,10.6,729.5,10.6"/>
	<path class="st0" d="M535.4,56.9h-8.6h-18h-31.6c3,11.8,12.5,17.8,28.6,17.8h26.6c9.9,0,14.8,3,14.8,8.9c0,5.9-4.9,8.9-14.8,8.9
		h-56.2v17.8h59.2c19.7,0,29.6-8.9,29.6-26.6S555.1,56.9,535.4,56.9"/>
	<path class="st0" d="M505.8,21.3c-16.1,0-25.6,5.9-28.6,17.8h31.6h18H565V21.3H505.8z"/>
	<path class="st0" d="M63.2,56.9h-8.6h-18H5c3,11.8,12.5,17.8,28.6,17.8h26.6c9.9,0,14.8,3,14.8,8.9c0,5.9-4.9,8.9-14.8,8.9H4v17.8
		h59.2c19.7,0,29.6-8.9,29.6-26.6S82.9,56.9,63.2,56.9"/>
	<path class="st0" d="M33.6,21.3C17.5,21.3,8,27.3,5,39.1h31.6h18h38.2V21.3H33.6z"/>
	<path class="st0" d="M252.7,110.8h19.1L236.6,22h-2.3h-16.8h-2.3l-35.3,88.8h19.1l9.5-23.9h34.8L252.7,110.8z M215.5,69.2l10.3-26
		l10.3,26H215.5z"/>
</g>
</svg>
