<svg id="Layer_1" data-name="Layer 1" xmlns="http://www.w3.org/2000/svg" viewBox="0 0 853 127.24"><defs><style>.cls-1{fill:#666667;}</style></defs><title>time slot pro logo horiz 860x135</title><path d="M832.66,119.16V94.62a7.88,7.88,0,0,1,3.13-6.37,5.9,5.9,0,0,1,3.13-1h4.33q3.15,0,5.33,3.39a8.3,8.3,0,0,1,1,3.83V111.8h6.31a.1.1,0,0,1,.11.11v7.24a.1.1,0,0,1-.11.11H832.77C832.7,119.25,832.66,119.21,832.66,119.16Zm5.55-7.35H844V97.64a2.69,2.69,0,0,0-2-2.87,4.81,4.81,0,0,0-.89-.09,2.72,2.72,0,0,0-2.81,1.76,4.12,4.12,0,0,0-.15,1.11Z" transform="translate(-3 -4.72)"/><path d="M832.66,84V59.45a7.92,7.92,0,0,1,2.57-5.85A5.72,5.72,0,0,1,839,52.08h4.22q3.28,0,5.44,3.61l.41.93L856,52.08l0,.11V61q-.37.33-6.42,4.33V76.68h6.31a.1.1,0,0,1,.11.11V84a.1.1,0,0,1-.11.11H832.77C832.7,84.13,832.66,84.09,832.66,84Zm5.55-7.35H844V62.52a2.69,2.69,0,0,0-2-2.87,4.81,4.81,0,0,0-.89-.09,2.72,2.72,0,0,0-2.81,1.76,4.12,4.12,0,0,0-.15,1.11Z" transform="translate(-3 -4.72)"/><path d="M832.66,41.81V24.48a7.83,7.83,0,0,1,3-6.37A5.74,5.74,0,0,1,839.08,17h10.55q3.55,0,5.59,4a8.27,8.27,0,0,1,.78,3.55V41.6a7.84,7.84,0,0,1-3.09,6.33A5.51,5.51,0,0,1,849.69,49H839q-3.72,0-5.79-4.39A9.29,9.29,0,0,1,832.66,41.81Zm9.35-.26h4.59a3.71,3.71,0,0,0,3.76-2.94,3.41,3.41,0,0,0,.11-.87V28.18a3.65,3.65,0,0,0-2.72-3.59,2.94,2.94,0,0,0-1-.15h-4.44a3.88,3.88,0,0,0-4,2.76,13.32,13.32,0,0,0-.09,1.41v9.14a3.69,3.69,0,0,0,2.7,3.65A4.09,4.09,0,0,0,842,41.55Z" transform="translate(-3 -4.72)"/><line class="cls-1" x1="839.35" y1="3.94" x2="842.97" y2="3.94"/><line class="cls-1" x1="843.07" y1="122.95" x2="839.42" y2="122.95"/><path d="M43.88,38.18H3.07L3,17.74H105.21V38.18H64.33v81.77H43.88Z" transform="translate(-3 -4.72)"/><path d="M137.72,119.95H117.28V17.74h20.44Z" transform="translate(-3 -4.72)"/><path d="M170.23,62.1v57.85H149.79V17.74h20.92l40.41,79.52,40.41-79.52h20.92V119.95H252V62l-29.37,57.85v.07h-23Z" transform="translate(-3 -4.72)"/><rect x="281.52" y="13.02" width="102.21" height="20.44"/><polygon points="281.52 53.91 281.52 53.91 281.52 115.23 301.96 115.23 301.96 115.23 383.73 115.23 383.73 94.79 301.96 94.79 301.96 74.35 383.73 74.35 383.73 53.91 301.96 53.91 281.52 53.91"/><path d="M763.56,37.46H722.74L722.67,17H824.89V37.46H784v81.78H763.56Z" transform="translate(-3 -4.72)"/><path d="M530.53,98.79V17H510.08V119.24h62.48c3.47-4.81,7.11-14,8.45-20.43Z" transform="translate(-3 -4.72)"/><path d="M706.72,105.82v18.87H602.82v-4h-7.27V132H714V28C713.8,45.36,712.68,83.28,706.72,105.82Z" transform="translate(-3 -4.72)"/><path d="M714,15.44v0H595.52v3.68c.13,40.91-3.28,65.73-6.41,79.88a96.8,96.8,0,0,1-6,18.31,37.72,37.72,0,0,1-1.92,3.42H700.33l1.09-1.63c2.09-3.14,3.84-7.74,5.3-13.24,6-22.54,7.08-60.46,7.27-77.77V15.44Zm-17.69,97.93H592.75c.83-2.33,1.8-5.49,2.81-9.63,3.25-13.26,6.88-36.63,7.27-75.48,0-1.81,0-3.64,0-5.52H706.7C706.69,45.89,704.86,97.13,696.29,113.36Z" transform="translate(-3 -4.72)"/><rect x="653.41" y="41.85" width="14.85" height="14.85" rx="1.32" ry="1.32"/><rect x="630.75" y="61.23" width="14.85" height="14.85" rx="1.32" ry="1.32"/><rect x="608.09" y="80.62" width="14.85" height="14.85" rx="1.32" ry="1.32"/><rect x="630.75" y="41.85" width="14.85" height="14.85" rx="1.32" ry="1.32"/><rect x="676.07" y="41.85" width="14.85" height="14.85" rx="1.32" ry="1.32"/><rect x="608.09" y="61.23" width="14.85" height="14.85" rx="1.32" ry="1.32"/><rect x="653.41" y="61.23" width="14.85" height="14.85" rx="1.32" ry="1.32"/><rect x="676.07" y="61.23" width="14.85" height="14.85" rx="1.32" ry="1.32"/><rect x="630.75" y="80.62" width="14.85" height="14.85" rx="1.32" ry="1.32"/><rect x="653.41" y="80.62" width="14.85" height="14.85" rx="1.32" ry="1.32"/><rect x="676.07" y="80.62" width="14.85" height="14.85" rx="1.32" ry="1.32"/><path d="M635.45,4.72a9.92,9.92,0,0,0-5.89,2,9.91,9.91,0,0,0-5.89-2c-6.51,0-11.8,6.69-11.8,14.91a17.35,17.35,0,0,0,2.73,9.51,5.49,5.49,0,1,0,3.61-3.05,13,13,0,0,1-1.65-6.46c0-5.54,3.26-10.22,7.12-10.22a5.11,5.11,0,0,1,2.64.79,17.38,17.38,0,0,0-2.67,9.43,17.36,17.36,0,0,0,2.73,9.51A5.49,5.49,0,1,0,630,26.09a13,13,0,0,1-1.65-6.46A13.31,13.31,0,0,1,629.54,14a12.24,12.24,0,0,1,.56,1.4H635a16.52,16.52,0,0,0-2.19-5.22,5.15,5.15,0,0,1,2.66-.78c2.81,0,5.29,2.5,6.43,6h4.87C645.31,9.23,640.79,4.72,635.45,4.72Z" transform="translate(-3 -4.72)"/><path d="M687.37,4.72a9.92,9.92,0,0,0-5.89,2,9.91,9.91,0,0,0-5.89-2c-6.51,0-11.8,6.69-11.8,14.91a17.35,17.35,0,0,0,2.73,9.51,5.49,5.49,0,1,0,3.61-3.05,13,13,0,0,1-1.65-6.46c0-5.54,3.26-10.22,7.12-10.22a5.11,5.11,0,0,1,2.64.79,17.38,17.38,0,0,0-2.67,9.43,17.35,17.35,0,0,0,2.73,9.51,5.49,5.49,0,1,0,3.61-3.05,13,13,0,0,1-1.65-6.46A13.31,13.31,0,0,1,681.47,14a12.32,12.32,0,0,1,.56,1.4h4.87a16.5,16.5,0,0,0-2.19-5.22,5.15,5.15,0,0,1,2.66-.78c2.81,0,5.29,2.5,6.43,6h4.87C697.23,9.23,692.71,4.72,687.37,4.72Z" transform="translate(-3 -4.72)"/><path d="M463.94,57.91h-67q5.11,20.44,32.92,20.44h30.67q17,0,17,10.22t-17,10.22H395.79v20.44h68.15q34.07,0,34.07-30.67T463.94,57.91Z" transform="translate(-3 -4.72)"/><path d="M429.86,17Q402,17,396.95,37.46H498V17Z" transform="translate(-3 -4.72)"/></svg>